<mxfile host="app.diagrams.net" agent="Mozilla/5.0 (Windows NT 10.0; Win64; x64) AppleWebKit/537.36 (KHTML, like Gecko) Chrome/129.0.0.0 Safari/537.36 Edg/129.0.0.0" version="24.7.17">
  <diagram name="Page-1" id="2YBvvXClWsGukQMizWep">
    <mxGraphModel dx="1105" dy="643" grid="1" gridSize="10" guides="1" tooltips="1" connect="1" arrows="1" fold="1" page="1" pageScale="1" pageWidth="850" pageHeight="1100" math="0" shadow="0">
      <root>
        <mxCell id="0" />
        <mxCell id="1" parent="0" />
        <mxCell id="aM9ryv3xv72pqoxQDRHE-5" value="Login Page" style="shape=umlLifeline;perimeter=lifelinePerimeter;whiteSpace=wrap;html=1;container=0;dropTarget=0;collapsible=0;recursiveResize=0;outlineConnect=0;portConstraint=eastwest;newEdgeStyle={&quot;edgeStyle&quot;:&quot;elbowEdgeStyle&quot;,&quot;elbow&quot;:&quot;vertical&quot;,&quot;curved&quot;:0,&quot;rounded&quot;:0};" parent="1" vertex="1">
          <mxGeometry x="220" y="80" width="100" height="300" as="geometry" />
        </mxCell>
        <mxCell id="aM9ryv3xv72pqoxQDRHE-7" value="1.// Select Sign-Up" style="html=1;verticalAlign=bottom;endArrow=block;edgeStyle=elbowEdgeStyle;elbow=vertical;curved=0;rounded=0;" parent="1" source="aM9ryv3xv72pqoxQDRHE-1" edge="1">
          <mxGeometry relative="1" as="geometry">
            <mxPoint x="40" y="160" as="sourcePoint" />
            <Array as="points">
              <mxPoint x="180" y="160" />
            </Array>
            <mxPoint x="265" y="160" as="targetPoint" />
          </mxGeometry>
        </mxCell>
        <mxCell id="aM9ryv3xv72pqoxQDRHE-9" value="2.// Redirect()" style="html=1;verticalAlign=bottom;endArrow=block;edgeStyle=elbowEdgeStyle;elbow=vertical;curved=0;rounded=0;" parent="1" edge="1">
          <mxGeometry relative="1" as="geometry">
            <mxPoint x="275" y="200" as="sourcePoint" />
            <Array as="points">
              <mxPoint x="290" y="200" />
            </Array>
            <mxPoint x="445" y="200" as="targetPoint" />
          </mxGeometry>
        </mxCell>
        <mxCell id="5bs0AVdcs-RmnZQzahKB-6" value="" style="group" parent="1" vertex="1" connectable="0">
          <mxGeometry x="40" y="80" width="100" height="300" as="geometry" />
        </mxCell>
        <mxCell id="aM9ryv3xv72pqoxQDRHE-1" value="User" style="shape=umlLifeline;perimeter=lifelinePerimeter;whiteSpace=wrap;html=1;container=0;dropTarget=0;collapsible=0;recursiveResize=0;outlineConnect=0;portConstraint=eastwest;newEdgeStyle={&quot;edgeStyle&quot;:&quot;elbowEdgeStyle&quot;,&quot;elbow&quot;:&quot;vertical&quot;,&quot;curved&quot;:0,&quot;rounded&quot;:0};movable=1;resizable=1;rotatable=1;deletable=1;editable=1;locked=0;connectable=1;" parent="5bs0AVdcs-RmnZQzahKB-6" vertex="1">
          <mxGeometry width="100" height="300" as="geometry" />
        </mxCell>
        <mxCell id="5bs0AVdcs-RmnZQzahKB-7" value="User Sign-Up&amp;nbsp;" style="text;html=1;align=center;verticalAlign=middle;whiteSpace=wrap;rounded=0;fontStyle=4;fontSize=16;" parent="1" vertex="1">
          <mxGeometry x="270" y="40" width="180" height="30" as="geometry" />
        </mxCell>
        <mxCell id="5bs0AVdcs-RmnZQzahKB-9" value="Sign-Up Page" style="shape=umlLifeline;perimeter=lifelinePerimeter;whiteSpace=wrap;html=1;container=0;dropTarget=0;collapsible=0;recursiveResize=0;outlineConnect=0;portConstraint=eastwest;newEdgeStyle={&quot;edgeStyle&quot;:&quot;elbowEdgeStyle&quot;,&quot;elbow&quot;:&quot;vertical&quot;,&quot;curved&quot;:0,&quot;rounded&quot;:0};" parent="1" vertex="1">
          <mxGeometry x="400" y="80" width="100" height="300" as="geometry" />
        </mxCell>
        <mxCell id="5bs0AVdcs-RmnZQzahKB-11" value="Database" style="shape=umlLifeline;perimeter=lifelinePerimeter;whiteSpace=wrap;html=1;container=0;dropTarget=0;collapsible=0;recursiveResize=0;outlineConnect=0;portConstraint=eastwest;newEdgeStyle={&quot;edgeStyle&quot;:&quot;elbowEdgeStyle&quot;,&quot;elbow&quot;:&quot;vertical&quot;,&quot;curved&quot;:0,&quot;rounded&quot;:0};" parent="1" vertex="1">
          <mxGeometry x="570" y="80" width="100" height="300" as="geometry" />
        </mxCell>
        <mxCell id="5bs0AVdcs-RmnZQzahKB-13" value="3.// Enter user details" style="html=1;verticalAlign=bottom;endArrow=block;edgeStyle=elbowEdgeStyle;elbow=vertical;curved=0;rounded=0;" parent="1" target="5bs0AVdcs-RmnZQzahKB-9" edge="1">
          <mxGeometry relative="1" as="geometry">
            <mxPoint x="95" y="240" as="sourcePoint" />
            <Array as="points">
              <mxPoint x="180" y="240" />
            </Array>
            <mxPoint x="265" y="240" as="targetPoint" />
          </mxGeometry>
        </mxCell>
        <mxCell id="5bs0AVdcs-RmnZQzahKB-14" value="4.// Click Sign-Up" style="html=1;verticalAlign=bottom;endArrow=block;edgeStyle=elbowEdgeStyle;elbow=vertical;curved=0;rounded=0;" parent="1" edge="1">
          <mxGeometry relative="1" as="geometry">
            <mxPoint x="92.5" y="280" as="sourcePoint" />
            <Array as="points">
              <mxPoint x="177.5" y="280" />
            </Array>
            <mxPoint x="447.5" y="280" as="targetPoint" />
          </mxGeometry>
        </mxCell>
        <mxCell id="5bs0AVdcs-RmnZQzahKB-15" value="5.// Save()" style="html=1;verticalAlign=bottom;endArrow=block;edgeStyle=elbowEdgeStyle;elbow=vertical;curved=0;rounded=0;" parent="1" edge="1">
          <mxGeometry relative="1" as="geometry">
            <mxPoint x="455" y="320" as="sourcePoint" />
            <Array as="points">
              <mxPoint x="465" y="320" />
            </Array>
            <mxPoint x="615" y="320" as="targetPoint" />
          </mxGeometry>
        </mxCell>
        <mxCell id="5bs0AVdcs-RmnZQzahKB-16" value="6.// Redirect()" style="html=1;verticalAlign=bottom;endArrow=block;edgeStyle=elbowEdgeStyle;elbow=vertical;curved=0;rounded=0;" parent="1" target="aM9ryv3xv72pqoxQDRHE-5" edge="1">
          <mxGeometry relative="1" as="geometry">
            <mxPoint x="445" y="360" as="sourcePoint" />
            <Array as="points">
              <mxPoint x="350.5" y="360" />
            </Array>
            <mxPoint x="300" y="360" as="targetPoint" />
          </mxGeometry>
        </mxCell>
        <mxCell id="5bs0AVdcs-RmnZQzahKB-17" value="Login Page" style="shape=umlLifeline;perimeter=lifelinePerimeter;whiteSpace=wrap;html=1;container=0;dropTarget=0;collapsible=0;recursiveResize=0;outlineConnect=0;portConstraint=eastwest;newEdgeStyle={&quot;edgeStyle&quot;:&quot;elbowEdgeStyle&quot;,&quot;elbow&quot;:&quot;vertical&quot;,&quot;curved&quot;:0,&quot;rounded&quot;:0};" parent="1" vertex="1">
          <mxGeometry x="225" y="440" width="100" height="300" as="geometry" />
        </mxCell>
        <mxCell id="5bs0AVdcs-RmnZQzahKB-19" value="1.// Enter credentials" style="html=1;verticalAlign=bottom;endArrow=block;edgeStyle=elbowEdgeStyle;elbow=vertical;curved=0;rounded=0;" parent="1" edge="1">
          <mxGeometry relative="1" as="geometry">
            <mxPoint x="100" y="520" as="sourcePoint" />
            <Array as="points">
              <mxPoint x="185" y="520" />
            </Array>
            <mxPoint x="270" y="520" as="targetPoint" />
          </mxGeometry>
        </mxCell>
        <mxCell id="5bs0AVdcs-RmnZQzahKB-20" value="2.// Verify()" style="html=1;verticalAlign=bottom;endArrow=block;edgeStyle=elbowEdgeStyle;elbow=vertical;curved=0;rounded=0;entryX=0.466;entryY=0.401;entryDx=0;entryDy=0;entryPerimeter=0;" parent="1" target="5bs0AVdcs-RmnZQzahKB-25" edge="1">
          <mxGeometry relative="1" as="geometry">
            <mxPoint x="280" y="560" as="sourcePoint" />
            <Array as="points">
              <mxPoint x="295" y="560" />
            </Array>
            <mxPoint x="450" y="560" as="targetPoint" />
          </mxGeometry>
        </mxCell>
        <mxCell id="5bs0AVdcs-RmnZQzahKB-21" value="" style="group" parent="1" vertex="1" connectable="0">
          <mxGeometry x="45" y="440" width="240" height="300" as="geometry" />
        </mxCell>
        <mxCell id="5bs0AVdcs-RmnZQzahKB-22" value="User" style="shape=umlLifeline;perimeter=lifelinePerimeter;whiteSpace=wrap;html=1;container=0;dropTarget=0;collapsible=0;recursiveResize=0;outlineConnect=0;portConstraint=eastwest;newEdgeStyle={&quot;edgeStyle&quot;:&quot;elbowEdgeStyle&quot;,&quot;elbow&quot;:&quot;vertical&quot;,&quot;curved&quot;:0,&quot;rounded&quot;:0};movable=1;resizable=1;rotatable=1;deletable=1;editable=1;locked=0;connectable=1;" parent="5bs0AVdcs-RmnZQzahKB-21" vertex="1">
          <mxGeometry width="100" height="300" as="geometry" />
        </mxCell>
        <mxCell id="YQuW15b_R1tQgUCbSZrj-5" value="Alt." style="text;html=1;align=center;verticalAlign=middle;whiteSpace=wrap;rounded=0;" parent="5bs0AVdcs-RmnZQzahKB-21" vertex="1">
          <mxGeometry x="180" y="250" width="60" height="30" as="geometry" />
        </mxCell>
        <mxCell id="5bs0AVdcs-RmnZQzahKB-24" value="User Login&amp;nbsp;" style="text;html=1;align=center;verticalAlign=middle;whiteSpace=wrap;rounded=0;fontStyle=4;fontSize=16;" parent="1" vertex="1">
          <mxGeometry x="275" y="400" width="180" height="30" as="geometry" />
        </mxCell>
        <mxCell id="5bs0AVdcs-RmnZQzahKB-25" value="Database" style="shape=umlLifeline;perimeter=lifelinePerimeter;whiteSpace=wrap;html=1;container=0;dropTarget=0;collapsible=0;recursiveResize=0;outlineConnect=0;portConstraint=eastwest;newEdgeStyle={&quot;edgeStyle&quot;:&quot;elbowEdgeStyle&quot;,&quot;elbow&quot;:&quot;vertical&quot;,&quot;curved&quot;:0,&quot;rounded&quot;:0};" parent="1" vertex="1">
          <mxGeometry x="405" y="440" width="100" height="300" as="geometry" />
        </mxCell>
        <mxCell id="5bs0AVdcs-RmnZQzahKB-27" value="Dashboard" style="shape=umlLifeline;perimeter=lifelinePerimeter;whiteSpace=wrap;html=1;container=0;dropTarget=0;collapsible=0;recursiveResize=0;outlineConnect=0;portConstraint=eastwest;newEdgeStyle={&quot;edgeStyle&quot;:&quot;elbowEdgeStyle&quot;,&quot;elbow&quot;:&quot;vertical&quot;,&quot;curved&quot;:0,&quot;rounded&quot;:0};" parent="1" vertex="1">
          <mxGeometry x="575" y="440" width="100" height="300" as="geometry" />
        </mxCell>
        <mxCell id="5bs0AVdcs-RmnZQzahKB-29" value="3.// Redirect()" style="html=1;verticalAlign=bottom;endArrow=block;edgeStyle=elbowEdgeStyle;elbow=vertical;curved=0;rounded=0;" parent="1" edge="1">
          <mxGeometry relative="1" as="geometry">
            <mxPoint x="460" y="600" as="sourcePoint" />
            <Array as="points">
              <mxPoint x="540" y="600" />
            </Array>
            <mxPoint x="620" y="600" as="targetPoint" />
          </mxGeometry>
        </mxCell>
        <mxCell id="5bs0AVdcs-RmnZQzahKB-30" value="4.// Click Sign-Up" style="html=1;verticalAlign=bottom;endArrow=block;edgeStyle=elbowEdgeStyle;elbow=vertical;curved=0;rounded=0;" parent="1" edge="1">
          <mxGeometry relative="1" as="geometry">
            <mxPoint x="100" y="640" as="sourcePoint" />
            <Array as="points" />
            <mxPoint x="452.5" y="640" as="targetPoint" />
          </mxGeometry>
        </mxCell>
        <mxCell id="5bs0AVdcs-RmnZQzahKB-31" value="5.// Save()" style="html=1;verticalAlign=bottom;endArrow=block;edgeStyle=elbowEdgeStyle;elbow=vertical;curved=0;rounded=0;" parent="1" target="5bs0AVdcs-RmnZQzahKB-27" edge="1">
          <mxGeometry relative="1" as="geometry">
            <mxPoint x="460" y="680" as="sourcePoint" />
            <Array as="points">
              <mxPoint x="470" y="680" />
            </Array>
            <mxPoint x="610" y="680" as="targetPoint" />
          </mxGeometry>
        </mxCell>
        <mxCell id="5bs0AVdcs-RmnZQzahKB-32" value="6.// Redirect If Wrong Input()" style="html=1;verticalAlign=bottom;endArrow=block;edgeStyle=elbowEdgeStyle;elbow=vertical;curved=0;rounded=0;dashed=1;" parent="1" target="5bs0AVdcs-RmnZQzahKB-17" edge="1">
          <mxGeometry relative="1" as="geometry">
            <mxPoint x="450" y="720" as="sourcePoint" />
            <Array as="points">
              <mxPoint x="360" y="720" />
            </Array>
            <mxPoint x="300" y="720" as="targetPoint" />
          </mxGeometry>
        </mxCell>
        <mxCell id="K9nbPzg30fCSGSn8A6S8-1" value="Dashboard" style="shape=umlLifeline;perimeter=lifelinePerimeter;whiteSpace=wrap;html=1;container=0;dropTarget=0;collapsible=0;recursiveResize=0;outlineConnect=0;portConstraint=eastwest;newEdgeStyle={&quot;edgeStyle&quot;:&quot;elbowEdgeStyle&quot;,&quot;elbow&quot;:&quot;vertical&quot;,&quot;curved&quot;:0,&quot;rounded&quot;:0};" parent="1" vertex="1">
          <mxGeometry x="225" y="820" width="100" height="300" as="geometry" />
        </mxCell>
        <mxCell id="K9nbPzg30fCSGSn8A6S8-2" value="1.// Select Reservation" style="html=1;verticalAlign=bottom;endArrow=block;edgeStyle=elbowEdgeStyle;elbow=vertical;curved=0;rounded=0;" parent="1" edge="1">
          <mxGeometry relative="1" as="geometry">
            <mxPoint x="100" y="900" as="sourcePoint" />
            <Array as="points">
              <mxPoint x="185" y="900" />
            </Array>
            <mxPoint x="270" y="900" as="targetPoint" />
          </mxGeometry>
        </mxCell>
        <mxCell id="K9nbPzg30fCSGSn8A6S8-3" value="2.// Redirect()" style="html=1;verticalAlign=bottom;endArrow=block;edgeStyle=elbowEdgeStyle;elbow=vertical;curved=0;rounded=0;entryX=0.466;entryY=0.401;entryDx=0;entryDy=0;entryPerimeter=0;" parent="1" target="K9nbPzg30fCSGSn8A6S8-7" edge="1">
          <mxGeometry relative="1" as="geometry">
            <mxPoint x="280" y="940" as="sourcePoint" />
            <Array as="points">
              <mxPoint x="295" y="940" />
            </Array>
            <mxPoint x="450" y="940" as="targetPoint" />
          </mxGeometry>
        </mxCell>
        <mxCell id="K9nbPzg30fCSGSn8A6S8-4" value="" style="group" parent="1" vertex="1" connectable="0">
          <mxGeometry x="45" y="820" width="100" height="300" as="geometry" />
        </mxCell>
        <mxCell id="K9nbPzg30fCSGSn8A6S8-5" value="Commuter" style="shape=umlLifeline;perimeter=lifelinePerimeter;whiteSpace=wrap;html=1;container=0;dropTarget=0;collapsible=0;recursiveResize=0;outlineConnect=0;portConstraint=eastwest;newEdgeStyle={&quot;edgeStyle&quot;:&quot;elbowEdgeStyle&quot;,&quot;elbow&quot;:&quot;vertical&quot;,&quot;curved&quot;:0,&quot;rounded&quot;:0};movable=1;resizable=1;rotatable=1;deletable=1;editable=1;locked=0;connectable=1;" parent="K9nbPzg30fCSGSn8A6S8-4" vertex="1">
          <mxGeometry width="100" height="300" as="geometry" />
        </mxCell>
        <mxCell id="K9nbPzg30fCSGSn8A6S8-6" value="Create Parking Resevation" style="text;html=1;align=center;verticalAlign=middle;whiteSpace=wrap;rounded=0;fontStyle=4;fontSize=16;" parent="1" vertex="1">
          <mxGeometry x="262.5" y="780" width="205" height="30" as="geometry" />
        </mxCell>
        <mxCell id="K9nbPzg30fCSGSn8A6S8-7" value="Registration Page" style="shape=umlLifeline;perimeter=lifelinePerimeter;whiteSpace=wrap;html=1;container=0;dropTarget=0;collapsible=0;recursiveResize=0;outlineConnect=0;portConstraint=eastwest;newEdgeStyle={&quot;edgeStyle&quot;:&quot;elbowEdgeStyle&quot;,&quot;elbow&quot;:&quot;vertical&quot;,&quot;curved&quot;:0,&quot;rounded&quot;:0};" parent="1" vertex="1">
          <mxGeometry x="405" y="820" width="100" height="300" as="geometry" />
        </mxCell>
        <mxCell id="K9nbPzg30fCSGSn8A6S8-8" value="Database" style="shape=umlLifeline;perimeter=lifelinePerimeter;whiteSpace=wrap;html=1;container=0;dropTarget=0;collapsible=0;recursiveResize=0;outlineConnect=0;portConstraint=eastwest;newEdgeStyle={&quot;edgeStyle&quot;:&quot;elbowEdgeStyle&quot;,&quot;elbow&quot;:&quot;vertical&quot;,&quot;curved&quot;:0,&quot;rounded&quot;:0};" parent="1" vertex="1">
          <mxGeometry x="575" y="820" width="100" height="300" as="geometry" />
        </mxCell>
        <mxCell id="K9nbPzg30fCSGSn8A6S8-10" value="4.// Click Reserve Button" style="html=1;verticalAlign=bottom;endArrow=block;edgeStyle=elbowEdgeStyle;elbow=vertical;curved=0;rounded=0;" parent="1" edge="1">
          <mxGeometry relative="1" as="geometry">
            <mxPoint x="100" y="1020" as="sourcePoint" />
            <Array as="points" />
            <mxPoint x="452.5" y="1020" as="targetPoint" />
          </mxGeometry>
        </mxCell>
        <mxCell id="K9nbPzg30fCSGSn8A6S8-11" value="5.// Reservation Created()" style="html=1;verticalAlign=bottom;endArrow=block;edgeStyle=elbowEdgeStyle;elbow=vertical;curved=0;rounded=0;" parent="1" target="K9nbPzg30fCSGSn8A6S8-8" edge="1">
          <mxGeometry relative="1" as="geometry">
            <mxPoint x="460" y="1060" as="sourcePoint" />
            <Array as="points">
              <mxPoint x="470" y="1060" />
            </Array>
            <mxPoint x="610" y="1060" as="targetPoint" />
          </mxGeometry>
        </mxCell>
        <mxCell id="K9nbPzg30fCSGSn8A6S8-12" value="6.// Redirect()" style="html=1;verticalAlign=bottom;endArrow=block;edgeStyle=elbowEdgeStyle;elbow=vertical;curved=0;rounded=0;" parent="1" source="K9nbPzg30fCSGSn8A6S8-8" target="K9nbPzg30fCSGSn8A6S8-1" edge="1">
          <mxGeometry relative="1" as="geometry">
            <mxPoint x="450" y="1100" as="sourcePoint" />
            <Array as="points">
              <mxPoint x="360" y="1100" />
            </Array>
            <mxPoint x="300" y="1100" as="targetPoint" />
          </mxGeometry>
        </mxCell>
        <mxCell id="K9nbPzg30fCSGSn8A6S8-13" style="edgeStyle=orthogonalEdgeStyle;rounded=0;orthogonalLoop=1;jettySize=auto;html=1;exitX=0.5;exitY=1;exitDx=0;exitDy=0;" parent="1" source="K9nbPzg30fCSGSn8A6S8-6" target="K9nbPzg30fCSGSn8A6S8-6" edge="1">
          <mxGeometry relative="1" as="geometry" />
        </mxCell>
        <mxCell id="K9nbPzg30fCSGSn8A6S8-9" value="3.// Enter Reservation Details" style="html=1;verticalAlign=bottom;endArrow=block;edgeStyle=elbowEdgeStyle;elbow=vertical;curved=0;rounded=0;" parent="1" source="K9nbPzg30fCSGSn8A6S8-5" target="K9nbPzg30fCSGSn8A6S8-7" edge="1">
          <mxGeometry relative="1" as="geometry">
            <mxPoint x="102.5" y="980" as="sourcePoint" />
            <Array as="points">
              <mxPoint x="182.5" y="980" />
            </Array>
            <mxPoint x="262.5" y="980" as="targetPoint" />
          </mxGeometry>
        </mxCell>
        <mxCell id="K9nbPzg30fCSGSn8A6S8-14" value="Reservation Page" style="shape=umlLifeline;perimeter=lifelinePerimeter;whiteSpace=wrap;html=1;container=0;dropTarget=0;collapsible=0;recursiveResize=0;outlineConnect=0;portConstraint=eastwest;newEdgeStyle={&quot;edgeStyle&quot;:&quot;elbowEdgeStyle&quot;,&quot;elbow&quot;:&quot;vertical&quot;,&quot;curved&quot;:0,&quot;rounded&quot;:0};" parent="1" vertex="1">
          <mxGeometry x="230" y="1190" width="100" height="330" as="geometry" />
        </mxCell>
        <mxCell id="K9nbPzg30fCSGSn8A6S8-15" value="1.// Select Pay" style="html=1;verticalAlign=bottom;endArrow=block;edgeStyle=elbowEdgeStyle;elbow=vertical;curved=0;rounded=0;" parent="1" edge="1">
          <mxGeometry relative="1" as="geometry">
            <mxPoint x="105" y="1270" as="sourcePoint" />
            <Array as="points">
              <mxPoint x="190" y="1270" />
            </Array>
            <mxPoint x="275" y="1270" as="targetPoint" />
          </mxGeometry>
        </mxCell>
        <mxCell id="K9nbPzg30fCSGSn8A6S8-16" value="2.// Redirect()" style="html=1;verticalAlign=bottom;endArrow=block;edgeStyle=elbowEdgeStyle;elbow=vertical;curved=0;rounded=0;" parent="1" edge="1">
          <mxGeometry relative="1" as="geometry">
            <mxPoint x="282.2" y="1310" as="sourcePoint" />
            <Array as="points">
              <mxPoint x="433" y="1310" />
              <mxPoint x="297.2" y="1310" />
            </Array>
            <mxPoint x="462.4999999999998" y="1310" as="targetPoint" />
          </mxGeometry>
        </mxCell>
        <mxCell id="K9nbPzg30fCSGSn8A6S8-17" value="" style="group" parent="1" vertex="1" connectable="0">
          <mxGeometry x="50" y="1190" width="100" height="330" as="geometry" />
        </mxCell>
        <mxCell id="K9nbPzg30fCSGSn8A6S8-18" value="Commuter" style="shape=umlLifeline;perimeter=lifelinePerimeter;whiteSpace=wrap;html=1;container=0;dropTarget=0;collapsible=0;recursiveResize=0;outlineConnect=0;portConstraint=eastwest;newEdgeStyle={&quot;edgeStyle&quot;:&quot;elbowEdgeStyle&quot;,&quot;elbow&quot;:&quot;vertical&quot;,&quot;curved&quot;:0,&quot;rounded&quot;:0};movable=1;resizable=1;rotatable=1;deletable=1;editable=1;locked=0;connectable=1;" parent="K9nbPzg30fCSGSn8A6S8-17" vertex="1">
          <mxGeometry width="100" height="330.00000000000006" as="geometry" />
        </mxCell>
        <mxCell id="K9nbPzg30fCSGSn8A6S8-19" value="Completing Payment&amp;nbsp;" style="text;html=1;align=center;verticalAlign=middle;whiteSpace=wrap;rounded=0;fontStyle=4;fontSize=16;" parent="1" vertex="1">
          <mxGeometry x="267.5" y="1150" width="205" height="30" as="geometry" />
        </mxCell>
        <mxCell id="K9nbPzg30fCSGSn8A6S8-20" value="Payment Page" style="shape=umlLifeline;perimeter=lifelinePerimeter;whiteSpace=wrap;html=1;container=0;dropTarget=0;collapsible=0;recursiveResize=0;outlineConnect=0;portConstraint=eastwest;newEdgeStyle={&quot;edgeStyle&quot;:&quot;elbowEdgeStyle&quot;,&quot;elbow&quot;:&quot;vertical&quot;,&quot;curved&quot;:0,&quot;rounded&quot;:0};" parent="1" vertex="1">
          <mxGeometry x="410" y="1190" width="100" height="330" as="geometry" />
        </mxCell>
        <mxCell id="K9nbPzg30fCSGSn8A6S8-21" value="Database" style="shape=umlLifeline;perimeter=lifelinePerimeter;whiteSpace=wrap;html=1;container=0;dropTarget=0;collapsible=0;recursiveResize=0;outlineConnect=0;portConstraint=eastwest;newEdgeStyle={&quot;edgeStyle&quot;:&quot;elbowEdgeStyle&quot;,&quot;elbow&quot;:&quot;vertical&quot;,&quot;curved&quot;:0,&quot;rounded&quot;:0};" parent="1" vertex="1">
          <mxGeometry x="560" y="1190" width="100" height="330" as="geometry" />
        </mxCell>
        <mxCell id="K9nbPzg30fCSGSn8A6S8-22" value="4.// Upload Transaction Proof" style="html=1;verticalAlign=bottom;endArrow=block;edgeStyle=elbowEdgeStyle;elbow=vertical;curved=0;rounded=0;" parent="1" edge="1">
          <mxGeometry relative="1" as="geometry">
            <mxPoint x="103.75" y="1380" as="sourcePoint" />
            <Array as="points" />
            <mxPoint x="456.25" y="1380" as="targetPoint" />
          </mxGeometry>
        </mxCell>
        <mxCell id="K9nbPzg30fCSGSn8A6S8-23" value="5.// Payment Complete()" style="html=1;verticalAlign=bottom;endArrow=block;edgeStyle=elbowEdgeStyle;elbow=vertical;curved=0;rounded=0;" parent="1" target="K9nbPzg30fCSGSn8A6S8-21" edge="1">
          <mxGeometry relative="1" as="geometry">
            <mxPoint x="465" y="1430" as="sourcePoint" />
            <Array as="points">
              <mxPoint x="475" y="1430" />
            </Array>
            <mxPoint x="615" y="1430" as="targetPoint" />
          </mxGeometry>
        </mxCell>
        <mxCell id="K9nbPzg30fCSGSn8A6S8-25" style="edgeStyle=orthogonalEdgeStyle;rounded=0;orthogonalLoop=1;jettySize=auto;html=1;exitX=0.5;exitY=1;exitDx=0;exitDy=0;" parent="1" source="K9nbPzg30fCSGSn8A6S8-19" target="K9nbPzg30fCSGSn8A6S8-19" edge="1">
          <mxGeometry relative="1" as="geometry" />
        </mxCell>
        <mxCell id="K9nbPzg30fCSGSn8A6S8-26" value="3.// Enter Payment Details" style="html=1;verticalAlign=bottom;endArrow=block;edgeStyle=elbowEdgeStyle;elbow=vertical;curved=0;rounded=0;" parent="1" edge="1">
          <mxGeometry relative="1" as="geometry">
            <mxPoint x="99.97736842105249" y="1340" as="sourcePoint" />
            <Array as="points">
              <mxPoint x="188.03" y="1340" />
            </Array>
            <mxPoint x="460.0300000000002" y="1340" as="targetPoint" />
          </mxGeometry>
        </mxCell>
        <mxCell id="K9nbPzg30fCSGSn8A6S8-27" value="Dashboard" style="shape=umlLifeline;perimeter=lifelinePerimeter;whiteSpace=wrap;html=1;container=0;dropTarget=0;collapsible=0;recursiveResize=0;outlineConnect=0;portConstraint=eastwest;newEdgeStyle={&quot;edgeStyle&quot;:&quot;elbowEdgeStyle&quot;,&quot;elbow&quot;:&quot;vertical&quot;,&quot;curved&quot;:0,&quot;rounded&quot;:0};" parent="1" vertex="1">
          <mxGeometry x="225" y="1610" width="100" height="270" as="geometry" />
        </mxCell>
        <mxCell id="K9nbPzg30fCSGSn8A6S8-28" value="1.// Select Reservation" style="html=1;verticalAlign=bottom;endArrow=block;edgeStyle=elbowEdgeStyle;elbow=vertical;curved=0;rounded=0;" parent="1" edge="1">
          <mxGeometry relative="1" as="geometry">
            <mxPoint x="100" y="1690" as="sourcePoint" />
            <Array as="points">
              <mxPoint x="185" y="1690" />
            </Array>
            <mxPoint x="270" y="1690" as="targetPoint" />
          </mxGeometry>
        </mxCell>
        <mxCell id="K9nbPzg30fCSGSn8A6S8-29" value="2.// Redirect()" style="html=1;verticalAlign=bottom;endArrow=block;edgeStyle=elbowEdgeStyle;elbow=vertical;curved=0;rounded=0;" parent="1" target="K9nbPzg30fCSGSn8A6S8-33" edge="1">
          <mxGeometry relative="1" as="geometry">
            <mxPoint x="275" y="1730" as="sourcePoint" />
            <Array as="points">
              <mxPoint x="293.9" y="1730.44" />
            </Array>
            <mxPoint x="455" y="1744.71" as="targetPoint" />
          </mxGeometry>
        </mxCell>
        <mxCell id="K9nbPzg30fCSGSn8A6S8-30" value="" style="group" parent="1" vertex="1" connectable="0">
          <mxGeometry x="45" y="1610" width="100" height="270" as="geometry" />
        </mxCell>
        <mxCell id="K9nbPzg30fCSGSn8A6S8-31" value="Commuter" style="shape=umlLifeline;perimeter=lifelinePerimeter;whiteSpace=wrap;html=1;container=0;dropTarget=0;collapsible=0;recursiveResize=0;outlineConnect=0;portConstraint=eastwest;newEdgeStyle={&quot;edgeStyle&quot;:&quot;elbowEdgeStyle&quot;,&quot;elbow&quot;:&quot;vertical&quot;,&quot;curved&quot;:0,&quot;rounded&quot;:0};movable=1;resizable=1;rotatable=1;deletable=1;editable=1;locked=0;connectable=1;" parent="K9nbPzg30fCSGSn8A6S8-30" vertex="1">
          <mxGeometry width="100" height="270" as="geometry" />
        </mxCell>
        <mxCell id="K9nbPzg30fCSGSn8A6S8-32" value="Cancelling a Reservation" style="text;html=1;align=center;verticalAlign=middle;whiteSpace=wrap;rounded=0;fontStyle=4;fontSize=16;" parent="1" vertex="1">
          <mxGeometry x="257.5" y="1560" width="205" height="30" as="geometry" />
        </mxCell>
        <mxCell id="K9nbPzg30fCSGSn8A6S8-33" value="Reservation&amp;nbsp; Page" style="shape=umlLifeline;perimeter=lifelinePerimeter;whiteSpace=wrap;html=1;container=0;dropTarget=0;collapsible=0;recursiveResize=0;outlineConnect=0;portConstraint=eastwest;newEdgeStyle={&quot;edgeStyle&quot;:&quot;elbowEdgeStyle&quot;,&quot;elbow&quot;:&quot;vertical&quot;,&quot;curved&quot;:0,&quot;rounded&quot;:0};" parent="1" vertex="1">
          <mxGeometry x="405" y="1610" width="100" height="270" as="geometry" />
        </mxCell>
        <mxCell id="K9nbPzg30fCSGSn8A6S8-34" value="Database" style="shape=umlLifeline;perimeter=lifelinePerimeter;whiteSpace=wrap;html=1;container=0;dropTarget=0;collapsible=0;recursiveResize=0;outlineConnect=0;portConstraint=eastwest;newEdgeStyle={&quot;edgeStyle&quot;:&quot;elbowEdgeStyle&quot;,&quot;elbow&quot;:&quot;vertical&quot;,&quot;curved&quot;:0,&quot;rounded&quot;:0};" parent="1" vertex="1">
          <mxGeometry x="575" y="1610" width="100" height="270" as="geometry" />
        </mxCell>
        <mxCell id="K9nbPzg30fCSGSn8A6S8-35" value="4.// Reservation Cancelled()" style="html=1;verticalAlign=bottom;endArrow=block;edgeStyle=elbowEdgeStyle;elbow=vertical;curved=0;rounded=0;" parent="1" source="K9nbPzg30fCSGSn8A6S8-33" edge="1">
          <mxGeometry relative="1" as="geometry">
            <mxPoint x="470" y="1805" as="sourcePoint" />
            <Array as="points" />
            <mxPoint x="624.5" y="1805" as="targetPoint" />
          </mxGeometry>
        </mxCell>
        <mxCell id="K9nbPzg30fCSGSn8A6S8-36" value="5.// Update Reservation()" style="html=1;verticalAlign=bottom;endArrow=none;edgeStyle=elbowEdgeStyle;elbow=vertical;curved=0;rounded=0;endFill=0;startArrow=classic;startFill=1;" parent="1" edge="1">
          <mxGeometry relative="1" as="geometry">
            <mxPoint x="454.9966666666667" y="1855" as="sourcePoint" />
            <Array as="points">
              <mxPoint x="530" y="1855" />
            </Array>
            <mxPoint x="624.8300000000003" y="1855" as="targetPoint" />
          </mxGeometry>
        </mxCell>
        <mxCell id="K9nbPzg30fCSGSn8A6S8-37" style="edgeStyle=orthogonalEdgeStyle;rounded=0;orthogonalLoop=1;jettySize=auto;html=1;exitX=0.5;exitY=1;exitDx=0;exitDy=0;" parent="1" edge="1">
          <mxGeometry relative="1" as="geometry">
            <mxPoint x="365" y="1600" as="sourcePoint" />
            <mxPoint x="365" y="1600" as="targetPoint" />
          </mxGeometry>
        </mxCell>
        <mxCell id="K9nbPzg30fCSGSn8A6S8-38" value="3.// Click Cancel Reservation" style="html=1;verticalAlign=bottom;endArrow=block;edgeStyle=elbowEdgeStyle;elbow=vertical;curved=0;rounded=0;" parent="1" source="K9nbPzg30fCSGSn8A6S8-31" target="K9nbPzg30fCSGSn8A6S8-33" edge="1">
          <mxGeometry relative="1" as="geometry">
            <mxPoint x="102.5" y="1770" as="sourcePoint" />
            <Array as="points">
              <mxPoint x="182.5" y="1770" />
            </Array>
            <mxPoint x="262.5" y="1770" as="targetPoint" />
          </mxGeometry>
        </mxCell>
        <mxCell id="K9nbPzg30fCSGSn8A6S8-39" value="" style="endArrow=none;html=1;rounded=0;" parent="1" edge="1">
          <mxGeometry width="50" height="50" relative="1" as="geometry">
            <mxPoint x="720" y="1900" as="sourcePoint" />
            <mxPoint x="40" y="760" as="targetPoint" />
            <Array as="points">
              <mxPoint x="720" y="40" />
              <mxPoint x="720" y="760" />
            </Array>
          </mxGeometry>
        </mxCell>
        <mxCell id="K9nbPzg30fCSGSn8A6S8-40" value="Dashboard" style="shape=umlLifeline;perimeter=lifelinePerimeter;whiteSpace=wrap;html=1;container=0;dropTarget=0;collapsible=0;recursiveResize=0;outlineConnect=0;portConstraint=eastwest;newEdgeStyle={&quot;edgeStyle&quot;:&quot;elbowEdgeStyle&quot;,&quot;elbow&quot;:&quot;vertical&quot;,&quot;curved&quot;:0,&quot;rounded&quot;:0};" parent="1" vertex="1">
          <mxGeometry x="960" y="81" width="100" height="319" as="geometry" />
        </mxCell>
        <mxCell id="K9nbPzg30fCSGSn8A6S8-41" value="1.// Select Facility Status" style="html=1;verticalAlign=bottom;endArrow=block;edgeStyle=elbowEdgeStyle;elbow=vertical;curved=0;rounded=0;" parent="1" source="K9nbPzg30fCSGSn8A6S8-44" target="K9nbPzg30fCSGSn8A6S8-40" edge="1">
          <mxGeometry relative="1" as="geometry">
            <mxPoint x="780" y="161" as="sourcePoint" />
            <Array as="points">
              <mxPoint x="920" y="161" />
            </Array>
            <mxPoint x="1005" y="161" as="targetPoint" />
          </mxGeometry>
        </mxCell>
        <mxCell id="K9nbPzg30fCSGSn8A6S8-42" value="2.// Redirect()" style="html=1;verticalAlign=bottom;endArrow=block;edgeStyle=elbowEdgeStyle;elbow=vertical;curved=0;rounded=0;" parent="1" source="K9nbPzg30fCSGSn8A6S8-40" edge="1">
          <mxGeometry relative="1" as="geometry">
            <mxPoint x="1015" y="201" as="sourcePoint" />
            <Array as="points">
              <mxPoint x="1030" y="201" />
            </Array>
            <mxPoint x="1185" y="201" as="targetPoint" />
          </mxGeometry>
        </mxCell>
        <mxCell id="K9nbPzg30fCSGSn8A6S8-43" value="" style="group" parent="1" vertex="1" connectable="0">
          <mxGeometry x="780" y="81" width="100" height="319" as="geometry" />
        </mxCell>
        <mxCell id="K9nbPzg30fCSGSn8A6S8-44" value="Administration" style="shape=umlLifeline;perimeter=lifelinePerimeter;whiteSpace=wrap;html=1;container=0;dropTarget=0;collapsible=0;recursiveResize=0;outlineConnect=0;portConstraint=eastwest;newEdgeStyle={&quot;edgeStyle&quot;:&quot;elbowEdgeStyle&quot;,&quot;elbow&quot;:&quot;vertical&quot;,&quot;curved&quot;:0,&quot;rounded&quot;:0};movable=1;resizable=1;rotatable=1;deletable=1;editable=1;locked=0;connectable=1;" parent="K9nbPzg30fCSGSn8A6S8-43" vertex="1">
          <mxGeometry width="100" height="319" as="geometry" />
        </mxCell>
        <mxCell id="K9nbPzg30fCSGSn8A6S8-45" value="Parking Availability Update" style="text;html=1;align=center;verticalAlign=middle;whiteSpace=wrap;rounded=0;fontStyle=4;fontSize=16;" parent="1" vertex="1">
          <mxGeometry x="1000" y="40" width="210" height="30" as="geometry" />
        </mxCell>
        <mxCell id="K9nbPzg30fCSGSn8A6S8-46" value="Facility Status Page" style="shape=umlLifeline;perimeter=lifelinePerimeter;whiteSpace=wrap;html=1;container=0;dropTarget=0;collapsible=0;recursiveResize=0;outlineConnect=0;portConstraint=eastwest;newEdgeStyle={&quot;edgeStyle&quot;:&quot;elbowEdgeStyle&quot;,&quot;elbow&quot;:&quot;vertical&quot;,&quot;curved&quot;:0,&quot;rounded&quot;:0};" parent="1" vertex="1">
          <mxGeometry x="1125" y="80" width="120" height="320" as="geometry" />
        </mxCell>
        <mxCell id="K9nbPzg30fCSGSn8A6S8-47" value="Database" style="shape=umlLifeline;perimeter=lifelinePerimeter;whiteSpace=wrap;html=1;container=0;dropTarget=0;collapsible=0;recursiveResize=0;outlineConnect=0;portConstraint=eastwest;newEdgeStyle={&quot;edgeStyle&quot;:&quot;elbowEdgeStyle&quot;,&quot;elbow&quot;:&quot;vertical&quot;,&quot;curved&quot;:0,&quot;rounded&quot;:0};" parent="1" vertex="1">
          <mxGeometry x="1310" y="81" width="100" height="319" as="geometry" />
        </mxCell>
        <mxCell id="K9nbPzg30fCSGSn8A6S8-48" value="3.// Search Station" style="html=1;verticalAlign=bottom;endArrow=block;edgeStyle=elbowEdgeStyle;elbow=vertical;curved=0;rounded=0;" parent="1" source="K9nbPzg30fCSGSn8A6S8-44" target="K9nbPzg30fCSGSn8A6S8-46" edge="1">
          <mxGeometry relative="1" as="geometry">
            <mxPoint x="835" y="241" as="sourcePoint" />
            <Array as="points">
              <mxPoint x="920" y="241" />
            </Array>
            <mxPoint x="1005" y="241" as="targetPoint" />
          </mxGeometry>
        </mxCell>
        <mxCell id="K9nbPzg30fCSGSn8A6S8-49" value="4.// Retrieve Data()" style="html=1;verticalAlign=bottom;endArrow=block;edgeStyle=elbowEdgeStyle;elbow=vertical;curved=0;rounded=0;" parent="1" target="K9nbPzg30fCSGSn8A6S8-47" edge="1">
          <mxGeometry x="-0.0034" relative="1" as="geometry">
            <mxPoint x="1200" y="281" as="sourcePoint" />
            <Array as="points">
              <mxPoint x="1183.27" y="281" />
            </Array>
            <mxPoint x="1340" y="280" as="targetPoint" />
            <mxPoint as="offset" />
          </mxGeometry>
        </mxCell>
        <mxCell id="K9nbPzg30fCSGSn8A6S8-50" value="5.// Display Data()" style="html=1;verticalAlign=bottom;endArrow=block;edgeStyle=elbowEdgeStyle;elbow=vertical;curved=0;rounded=0;" parent="1" edge="1">
          <mxGeometry relative="1" as="geometry">
            <mxPoint x="1360" y="320" as="sourcePoint" />
            <Array as="points">
              <mxPoint x="1280" y="320" />
            </Array>
            <mxPoint x="1187.9976190476193" y="320" as="targetPoint" />
          </mxGeometry>
        </mxCell>
        <mxCell id="K9nbPzg30fCSGSn8A6S8-52" value="Dashboard" style="shape=umlLifeline;perimeter=lifelinePerimeter;whiteSpace=wrap;html=1;container=0;dropTarget=0;collapsible=0;recursiveResize=0;outlineConnect=0;portConstraint=eastwest;newEdgeStyle={&quot;edgeStyle&quot;:&quot;elbowEdgeStyle&quot;,&quot;elbow&quot;:&quot;vertical&quot;,&quot;curved&quot;:0,&quot;rounded&quot;:0};" parent="1" vertex="1">
          <mxGeometry x="965" y="461" width="100" height="279" as="geometry" />
        </mxCell>
        <mxCell id="K9nbPzg30fCSGSn8A6S8-53" value="1.// Select Reservation" style="html=1;verticalAlign=bottom;endArrow=block;edgeStyle=elbowEdgeStyle;elbow=vertical;curved=0;rounded=0;" parent="1" target="K9nbPzg30fCSGSn8A6S8-52" edge="1">
          <mxGeometry relative="1" as="geometry">
            <mxPoint x="840" y="541" as="sourcePoint" />
            <Array as="points">
              <mxPoint x="925" y="541" />
            </Array>
            <mxPoint x="1010" y="541" as="targetPoint" />
          </mxGeometry>
        </mxCell>
        <mxCell id="K9nbPzg30fCSGSn8A6S8-54" value="2.// Redirect()" style="html=1;verticalAlign=bottom;endArrow=block;edgeStyle=elbowEdgeStyle;elbow=vertical;curved=0;rounded=0;" parent="1" edge="1">
          <mxGeometry relative="1" as="geometry">
            <mxPoint x="1017.75" y="580" as="sourcePoint" />
            <Array as="points" />
            <mxPoint x="1192.25" y="579.9047619047619" as="targetPoint" />
          </mxGeometry>
        </mxCell>
        <mxCell id="K9nbPzg30fCSGSn8A6S8-55" value="" style="group" parent="1" vertex="1" connectable="0">
          <mxGeometry x="785" y="461" width="100" height="279" as="geometry" />
        </mxCell>
        <mxCell id="K9nbPzg30fCSGSn8A6S8-56" value="Administration" style="shape=umlLifeline;perimeter=lifelinePerimeter;whiteSpace=wrap;html=1;container=0;dropTarget=0;collapsible=0;recursiveResize=0;outlineConnect=0;portConstraint=eastwest;newEdgeStyle={&quot;edgeStyle&quot;:&quot;elbowEdgeStyle&quot;,&quot;elbow&quot;:&quot;vertical&quot;,&quot;curved&quot;:0,&quot;rounded&quot;:0};movable=1;resizable=1;rotatable=1;deletable=1;editable=1;locked=0;connectable=1;" parent="K9nbPzg30fCSGSn8A6S8-55" vertex="1">
          <mxGeometry width="100" height="279" as="geometry" />
        </mxCell>
        <mxCell id="K9nbPzg30fCSGSn8A6S8-57" value="Verify Transaction Revenue" style="text;html=1;align=center;verticalAlign=middle;whiteSpace=wrap;rounded=0;fontStyle=4;fontSize=16;" parent="1" vertex="1">
          <mxGeometry x="1002.5" y="420" width="205" height="30" as="geometry" />
        </mxCell>
        <mxCell id="K9nbPzg30fCSGSn8A6S8-58" value="Transaction Page" style="shape=umlLifeline;perimeter=lifelinePerimeter;whiteSpace=wrap;html=1;container=0;dropTarget=0;collapsible=0;recursiveResize=0;outlineConnect=0;portConstraint=eastwest;newEdgeStyle={&quot;edgeStyle&quot;:&quot;elbowEdgeStyle&quot;,&quot;elbow&quot;:&quot;vertical&quot;,&quot;curved&quot;:0,&quot;rounded&quot;:0};" parent="1" vertex="1">
          <mxGeometry x="1145" y="461" width="100" height="279" as="geometry" />
        </mxCell>
        <mxCell id="K9nbPzg30fCSGSn8A6S8-59" value="Database" style="shape=umlLifeline;perimeter=lifelinePerimeter;whiteSpace=wrap;html=1;container=0;dropTarget=0;collapsible=0;recursiveResize=0;outlineConnect=0;portConstraint=eastwest;newEdgeStyle={&quot;edgeStyle&quot;:&quot;elbowEdgeStyle&quot;,&quot;elbow&quot;:&quot;vertical&quot;,&quot;curved&quot;:0,&quot;rounded&quot;:0};" parent="1" vertex="1">
          <mxGeometry x="1315" y="461" width="100" height="279" as="geometry" />
        </mxCell>
        <mxCell id="K9nbPzg30fCSGSn8A6S8-60" value="3.// Select Station/Date" style="html=1;verticalAlign=bottom;endArrow=block;edgeStyle=elbowEdgeStyle;elbow=vertical;curved=0;rounded=0;" parent="1" edge="1">
          <mxGeometry relative="1" as="geometry">
            <mxPoint x="835.027619047619" y="620.0033333333332" as="sourcePoint" />
            <Array as="points" />
            <mxPoint x="1194.98" y="620.0033333333332" as="targetPoint" />
          </mxGeometry>
        </mxCell>
        <mxCell id="K9nbPzg30fCSGSn8A6S8-64" value="Dashboard" style="shape=umlLifeline;perimeter=lifelinePerimeter;whiteSpace=wrap;html=1;container=0;dropTarget=0;collapsible=0;recursiveResize=0;outlineConnect=0;portConstraint=eastwest;newEdgeStyle={&quot;edgeStyle&quot;:&quot;elbowEdgeStyle&quot;,&quot;elbow&quot;:&quot;vertical&quot;,&quot;curved&quot;:0,&quot;rounded&quot;:0};" parent="1" vertex="1">
          <mxGeometry x="965" y="821" width="100" height="300" as="geometry" />
        </mxCell>
        <mxCell id="K9nbPzg30fCSGSn8A6S8-65" value="1.// Select Reports" style="html=1;verticalAlign=bottom;endArrow=block;edgeStyle=elbowEdgeStyle;elbow=vertical;curved=0;rounded=0;" parent="1" edge="1">
          <mxGeometry relative="1" as="geometry">
            <mxPoint x="840" y="901" as="sourcePoint" />
            <Array as="points">
              <mxPoint x="925" y="901" />
            </Array>
            <mxPoint x="1010" y="901" as="targetPoint" />
          </mxGeometry>
        </mxCell>
        <mxCell id="K9nbPzg30fCSGSn8A6S8-66" value="2.// Redirect()" style="html=1;verticalAlign=bottom;endArrow=block;edgeStyle=elbowEdgeStyle;elbow=vertical;curved=0;rounded=0;entryX=0.466;entryY=0.401;entryDx=0;entryDy=0;entryPerimeter=0;" parent="1" target="K9nbPzg30fCSGSn8A6S8-70" edge="1">
          <mxGeometry relative="1" as="geometry">
            <mxPoint x="1020" y="941" as="sourcePoint" />
            <Array as="points">
              <mxPoint x="1035" y="941" />
            </Array>
            <mxPoint x="1190" y="941" as="targetPoint" />
          </mxGeometry>
        </mxCell>
        <mxCell id="K9nbPzg30fCSGSn8A6S8-67" value="" style="group" parent="1" vertex="1" connectable="0">
          <mxGeometry x="785" y="821" width="100" height="300" as="geometry" />
        </mxCell>
        <mxCell id="K9nbPzg30fCSGSn8A6S8-68" value="Administration" style="shape=umlLifeline;perimeter=lifelinePerimeter;whiteSpace=wrap;html=1;container=0;dropTarget=0;collapsible=0;recursiveResize=0;outlineConnect=0;portConstraint=eastwest;newEdgeStyle={&quot;edgeStyle&quot;:&quot;elbowEdgeStyle&quot;,&quot;elbow&quot;:&quot;vertical&quot;,&quot;curved&quot;:0,&quot;rounded&quot;:0};movable=1;resizable=1;rotatable=1;deletable=1;editable=1;locked=0;connectable=1;" parent="K9nbPzg30fCSGSn8A6S8-67" vertex="1">
          <mxGeometry width="100" height="300" as="geometry" />
        </mxCell>
        <mxCell id="K9nbPzg30fCSGSn8A6S8-69" value="Generate Reservation Report" style="text;html=1;align=center;verticalAlign=middle;whiteSpace=wrap;rounded=0;fontStyle=4;fontSize=16;" parent="1" vertex="1">
          <mxGeometry x="976.25" y="780" width="257.5" height="30" as="geometry" />
        </mxCell>
        <mxCell id="K9nbPzg30fCSGSn8A6S8-70" value="Report Page" style="shape=umlLifeline;perimeter=lifelinePerimeter;whiteSpace=wrap;html=1;container=0;dropTarget=0;collapsible=0;recursiveResize=0;outlineConnect=0;portConstraint=eastwest;newEdgeStyle={&quot;edgeStyle&quot;:&quot;elbowEdgeStyle&quot;,&quot;elbow&quot;:&quot;vertical&quot;,&quot;curved&quot;:0,&quot;rounded&quot;:0};" parent="1" vertex="1">
          <mxGeometry x="1145" y="821" width="100" height="300" as="geometry" />
        </mxCell>
        <mxCell id="K9nbPzg30fCSGSn8A6S8-71" value="Database" style="shape=umlLifeline;perimeter=lifelinePerimeter;whiteSpace=wrap;html=1;container=0;dropTarget=0;collapsible=0;recursiveResize=0;outlineConnect=0;portConstraint=eastwest;newEdgeStyle={&quot;edgeStyle&quot;:&quot;elbowEdgeStyle&quot;,&quot;elbow&quot;:&quot;vertical&quot;,&quot;curved&quot;:0,&quot;rounded&quot;:0};" parent="1" vertex="1">
          <mxGeometry x="1315" y="821" width="100" height="300" as="geometry" />
        </mxCell>
        <mxCell id="K9nbPzg30fCSGSn8A6S8-72" value="4.// Click Print Button" style="html=1;verticalAlign=bottom;endArrow=block;edgeStyle=elbowEdgeStyle;elbow=vertical;curved=0;rounded=0;" parent="1" edge="1">
          <mxGeometry relative="1" as="geometry">
            <mxPoint x="840" y="1021" as="sourcePoint" />
            <Array as="points" />
            <mxPoint x="1192.5" y="1021" as="targetPoint" />
          </mxGeometry>
        </mxCell>
        <mxCell id="K9nbPzg30fCSGSn8A6S8-73" value="5.// Print()" style="html=1;verticalAlign=bottom;endArrow=block;edgeStyle=elbowEdgeStyle;elbow=vertical;curved=0;rounded=0;" parent="1" target="K9nbPzg30fCSGSn8A6S8-71" edge="1">
          <mxGeometry relative="1" as="geometry">
            <mxPoint x="1200" y="1061" as="sourcePoint" />
            <Array as="points">
              <mxPoint x="1210" y="1061" />
            </Array>
            <mxPoint x="1350" y="1061" as="targetPoint" />
          </mxGeometry>
        </mxCell>
        <mxCell id="K9nbPzg30fCSGSn8A6S8-76" value="3.// Select Station/Date" style="html=1;verticalAlign=bottom;endArrow=block;edgeStyle=elbowEdgeStyle;elbow=vertical;curved=0;rounded=0;" parent="1" source="K9nbPzg30fCSGSn8A6S8-68" target="K9nbPzg30fCSGSn8A6S8-70" edge="1">
          <mxGeometry relative="1" as="geometry">
            <mxPoint x="842.5" y="981" as="sourcePoint" />
            <Array as="points">
              <mxPoint x="922.5" y="981" />
            </Array>
            <mxPoint x="1002.5" y="981" as="targetPoint" />
          </mxGeometry>
        </mxCell>
        <mxCell id="K9nbPzg30fCSGSn8A6S8-103" value="4.// Retrieve Data()" style="html=1;verticalAlign=bottom;endArrow=block;edgeStyle=elbowEdgeStyle;elbow=vertical;curved=0;rounded=0;" parent="1" target="K9nbPzg30fCSGSn8A6S8-59" edge="1">
          <mxGeometry x="-0.0034" relative="1" as="geometry">
            <mxPoint x="1196.73" y="660" as="sourcePoint" />
            <Array as="points" />
            <mxPoint x="1356.73" y="660" as="targetPoint" />
            <mxPoint as="offset" />
          </mxGeometry>
        </mxCell>
        <mxCell id="K9nbPzg30fCSGSn8A6S8-104" value="5.// Display Data()" style="html=1;verticalAlign=bottom;endArrow=block;edgeStyle=elbowEdgeStyle;elbow=vertical;curved=0;rounded=0;" parent="1" source="K9nbPzg30fCSGSn8A6S8-59" target="K9nbPzg30fCSGSn8A6S8-58" edge="1">
          <mxGeometry relative="1" as="geometry">
            <mxPoint x="1351.5" y="700" as="sourcePoint" />
            <Array as="points">
              <mxPoint x="1291" y="700" />
            </Array>
            <mxPoint x="1198.9976190476193" y="700" as="targetPoint" />
          </mxGeometry>
        </mxCell>
        <mxCell id="K9nbPzg30fCSGSn8A6S8-107" value="5.// Click Print Payment Slip" style="html=1;verticalAlign=bottom;endArrow=block;edgeStyle=elbowEdgeStyle;elbow=vertical;curved=0;rounded=0;" parent="1" target="K9nbPzg30fCSGSn8A6S8-20" edge="1">
          <mxGeometry relative="1" as="geometry">
            <mxPoint x="100" y="1470" as="sourcePoint" />
            <Array as="points">
              <mxPoint x="110" y="1470" />
            </Array>
            <mxPoint x="244" y="1470" as="targetPoint" />
          </mxGeometry>
        </mxCell>
        <mxCell id="K9nbPzg30fCSGSn8A6S8-109" value="6.// Print()" style="html=1;verticalAlign=bottom;endArrow=block;edgeStyle=elbowEdgeStyle;elbow=vertical;curved=0;rounded=0;" parent="1" source="K9nbPzg30fCSGSn8A6S8-20" edge="1">
          <mxGeometry relative="1" as="geometry">
            <mxPoint x="480" y="1510" as="sourcePoint" />
            <Array as="points">
              <mxPoint x="540" y="1510" />
            </Array>
            <mxPoint x="609" y="1510" as="targetPoint" />
          </mxGeometry>
        </mxCell>
        <mxCell id="YQuW15b_R1tQgUCbSZrj-2" value="" style="rounded=0;whiteSpace=wrap;html=1;fillColor=none;" parent="1" vertex="1">
          <mxGeometry x="235" y="690" width="250" height="60" as="geometry" />
        </mxCell>
        <mxCell id="cQwZyctBs4wTFomUTS5M-1" value="6.// Update Facility Availability" style="html=1;verticalAlign=bottom;endArrow=block;edgeStyle=elbowEdgeStyle;elbow=vertical;curved=0;rounded=0;" parent="1" edge="1">
          <mxGeometry relative="1" as="geometry">
            <mxPoint x="832.5" y="350" as="sourcePoint" />
            <Array as="points">
              <mxPoint x="922.5" y="350" />
            </Array>
            <mxPoint x="1187.5" y="350" as="targetPoint" />
          </mxGeometry>
        </mxCell>
        <mxCell id="cQwZyctBs4wTFomUTS5M-3" value="4.// Save()" style="html=1;verticalAlign=bottom;endArrow=block;edgeStyle=elbowEdgeStyle;elbow=vertical;curved=0;rounded=0;" parent="1" source="K9nbPzg30fCSGSn8A6S8-46" edge="1">
          <mxGeometry x="-0.0034" relative="1" as="geometry">
            <mxPoint x="1196.73" y="380" as="sourcePoint" />
            <Array as="points" />
            <mxPoint x="1356.73" y="380" as="targetPoint" />
            <mxPoint as="offset" />
          </mxGeometry>
        </mxCell>
        <mxCell id="akoqrWqlQ7HZ8poA-Wqt-1" value="5.// Click Pay Button" style="html=1;verticalAlign=bottom;endArrow=block;edgeStyle=elbowEdgeStyle;elbow=horizontal;curved=0;rounded=0;" edge="1" parent="1">
          <mxGeometry relative="1" as="geometry">
            <mxPoint x="103.75" y="1410" as="sourcePoint" />
            <Array as="points" />
            <mxPoint x="456.25" y="1410" as="targetPoint" />
          </mxGeometry>
        </mxCell>
      </root>
    </mxGraphModel>
  </diagram>
</mxfile>
